<svg xmlns="http://www.w3.org/2000/svg" xmlns:xlink="http://www.w3.org/1999/xlink" width="500" zoomAndPan="magnify" viewBox="0 0 375 374.999991" height="500" preserveAspectRatio="xMidYMid meet" version="1.0"><path fill="#37678c" d="M 13.671875 143.472656 C 36.535156 72.855469 92.160156 35.363281 149.875 27.402344 C 130.398438 51.195312 118.488281 82.339844 118.488281 116.542969 C 118.488281 191.1875 174.742188 251.6875 244.152344 251.6875 C 283.019531 251.6875 317.761719 232.6875 340.8125 202.867188 C 325.027344 289.5625 218.007812 358.738281 140.796875 354.957031 C 22.011719 349.144531 -25.917969 265.707031 13.671875 143.472656 Z M 13.671875 143.472656 " fill-opacity="1" fill-rule="nonzero"/><path fill="#000000" d="M 12.253906 344.5625 C 14.070312 344.5625 18.226562 343.949219 20.839844 338.753906 C 39.214844 303.84375 71.496094 312.515625 89.804688 321.277344 C 92.035156 323.199219 94.144531 324.242188 95.761719 325.042969 C 96.4375 325.363281 97.128906 325.582031 97.867188 325.71875 C 141.644531 348.820312 200.269531 348.667969 255.183594 325.210938 C 299.804688 307.101562 341.210938 272.378906 368.601562 229.984375 C 370.601562 226.894531 370.140625 222.820312 367.476562 220.285156 C 364.847656 217.734375 360.769531 217.394531 357.738281 219.5 C 345.074219 228.324219 332.472656 236.792969 317.6875 243.265625 C 266.21875 266.613281 214.746094 268.535156 174.402344 249.167969 C 230.765625 204.511719 278.15625 148.023438 313.609375 103.089844 C 321.007812 94.113281 328.8125 84.691406 334.132812 75.085938 C 335.949219 71.78125 335.121094 67.644531 332.164062 65.324219 C 329.179688 62.988281 324.964844 63.140625 322.210938 65.691406 C 295.605469 90.054688 259.691406 117.726562 229.566406 139.277344 C 241.488281 125.011719 252.03125 111.652344 260.339844 100.785156 C 295.773438 54.515625 295.207031 53.964844 289.898438 48.691406 C 286.898438 45.738281 281.988281 45.769531 278.988281 48.722656 C 201.007812 126.546875 127.117188 174.339844 115.71875 181.53125 C 115.410156 180.457031 115.164062 179.441406 114.980469 178.535156 C 103.160156 130.238281 116.257812 76.296875 150.816406 30.230469 C 153.015625 27.308594 152.832031 23.234375 150.398438 20.5 C 147.953125 17.761719 143.921875 17.148438 140.765625 18.976562 C 55.492188 68.875 8.425781 162.503906 28.875 241.621094 C 29.011719 242.097656 29.179688 242.574219 29.382812 243.019531 C -1.238281 282.277344 -2.855469 324.671875 3.347656 338.109375 C 5.992188 343.839844 10.378906 344.546875 12.132812 344.578125 C 12.164062 344.5625 12.210938 344.5625 12.253906 344.5625 Z M 7.179688 331.683594 C 7.179688 331.699219 7.164062 331.714844 7.164062 331.730469 C 7.164062 331.714844 7.179688 331.699219 7.179688 331.683594 Z M 329.980469 254.53125 C 306.976562 279.1875 278.878906 299.019531 249.230469 311.039062 C 197.898438 333.019531 143.507812 333.128906 103.667969 311.40625 C 102.882812 310.976562 102.054688 310.683594 101.175781 310.546875 C 100.546875 310.207031 100.070312 309.871094 99.59375 309.410156 C 99.007812 308.839844 98.332031 308.347656 97.589844 307.980469 C 84.527344 301.539062 43.351562 285.167969 15.855469 318.464844 C 16.316406 302.785156 21.964844 275.992188 43.859375 249.507812 C 45.785156 247.167969 46.152344 243.925781 44.816406 241.207031 C 44.414062 239.636719 44.089844 238.390625 43.566406 237.132812 C 27.734375 174.554688 58.402344 101.832031 118.101562 53.300781 C 96.4375 95.050781 89.773438 140.398438 99.929688 181.886719 C 100.683594 185.667969 102.347656 190.925781 104.394531 195.996094 C 105.222656 198.042969 106.871094 199.609375 108.945312 200.347656 C 111.023438 201.085938 113.300781 200.902344 115.226562 199.855469 C 118.011719 198.332031 120.300781 196.917969 122.503906 195.398438 C 126.671875 192.816406 171.800781 164.4375 229.011719 115.648438 C 213.6875 134.601562 196.023438 155.214844 177.957031 173.894531 C 175.296875 176.660156 175.066406 180.933594 177.417969 183.960938 C 179.773438 186.972656 184.019531 187.804688 187.328125 185.898438 C 205.652344 175.367188 242.675781 149.835938 278.617188 121.984375 C 244.921875 162.78125 203.300781 208.25 155.691406 244.171875 C 153.660156 245.722656 152.523438 248.167969 152.660156 250.71875 C 152.800781 253.273438 154.183594 255.578125 156.371094 256.898438 C 202.375 284.554688 263.460938 284.722656 323.949219 257.300781 C 325.996094 256.40625 328.011719 255.46875 329.980469 254.53125 Z M 36.304688 239.699219 L 36.152344 239.699219 Z M 36.304688 239.699219 " fill-opacity="1" fill-rule="nonzero"/></svg>