<svg xmlns="http://www.w3.org/2000/svg" xmlns:xlink="http://www.w3.org/1999/xlink" width="500" zoomAndPan="magnify" viewBox="0 0 375 374.999991" height="500" preserveAspectRatio="xMidYMid meet" version="1.0"><defs><g/><clipPath id="afbf5a2633"><path d="M 182 34.039062 L 296.828125 34.039062 L 296.828125 228 L 182 228 Z M 182 34.039062 " clip-rule="nonzero"/></clipPath><clipPath id="4ea0ad7026"><path d="M 77.828125 34.039062 L 287 34.039062 L 287 253.039062 L 77.828125 253.039062 Z M 77.828125 34.039062 " clip-rule="nonzero"/></clipPath><clipPath id="1635c3c582"><path d="M 205 172 L 261 172 L 261 253.039062 L 205 253.039062 Z M 205 172 " clip-rule="nonzero"/></clipPath></defs><path fill="#051d40" d="M 92.359375 143.539062 C 92.359375 190.164062 130.15625 227.960938 176.78125 227.960938 C 178.546875 227.960938 180.296875 227.902344 182.035156 227.792969 C 137.875 225.058594 102.90625 188.386719 102.90625 143.539062 C 102.90625 98.6875 137.886719 62.007812 182.054688 59.289062 C 180.308594 59.179688 178.550781 59.117188 176.78125 59.117188 C 130.15625 59.117188 92.359375 96.914062 92.359375 143.539062 " fill-opacity="1" fill-rule="nonzero"/><g clip-path="url(#afbf5a2633)"><path fill="#051d40" d="M 187.328125 34.035156 C 185.558594 34.035156 183.800781 34.078125 182.054688 34.160156 C 240.082031 36.914062 286.285156 84.832031 286.285156 143.539062 C 286.285156 174.023438 273.828125 201.597656 253.722656 221.453125 L 257.566406 227.554688 C 281.566406 207.464844 296.832031 177.285156 296.832031 143.539062 C 296.832031 83.0625 247.804688 34.035156 187.328125 34.035156 " fill-opacity="1" fill-rule="nonzero"/></g><g clip-path="url(#4ea0ad7026)"><path fill="#3f51b5" d="M 182.054688 34.160156 C 124.027344 36.914062 77.824219 84.832031 77.824219 143.539062 C 77.824219 202.253906 124.03125 250.171875 182.066406 252.917969 C 183.808594 253 185.5625 253.046875 187.328125 253.046875 C 201.183594 253.046875 214.433594 250.472656 226.636719 245.777344 L 195 227.613281 C 192.472656 227.839844 189.914062 227.960938 187.328125 227.960938 C 186.550781 227.960938 185.777344 227.949219 185.007812 227.929688 C 184.011719 227.90625 183.019531 227.855469 182.035156 227.792969 C 180.296875 227.902344 178.546875 227.960938 176.78125 227.960938 C 130.15625 227.960938 92.359375 190.164062 92.359375 143.539062 C 92.359375 96.914062 130.15625 59.117188 176.78125 59.117188 C 178.550781 59.117188 180.308594 59.179688 182.054688 59.289062 C 183.800781 59.179688 185.554688 59.117188 187.328125 59.117188 C 233.953125 59.117188 271.75 96.914062 271.75 143.539062 C 271.75 168.335938 261.0625 190.628906 244.042969 206.074219 L 253.722656 221.453125 C 273.828125 201.597656 286.285156 174.023438 286.285156 143.539062 C 286.285156 84.832031 240.082031 36.914062 182.054688 34.160156 " fill-opacity="1" fill-rule="nonzero"/></g><g clip-path="url(#1635c3c582)"><path fill="#051d40" d="M 260.902344 253.046875 L 210.050781 172.285156 L 205.59375 179.835938 L 246.472656 244.761719 L 260.902344 253.046875 " fill-opacity="1" fill-rule="nonzero"/></g><path fill="#3f51b5" d="M 246.472656 244.761719 L 205.59375 179.835938 L 187.328125 210.796875 Z M 246.472656 244.761719 " fill-opacity="1" fill-rule="nonzero"/><g fill="#000000" fill-opacity="1"><g transform="translate(-0.700964, 313.964868)"><g><path d="M 21.71875 -50.296875 C 27.34375 -50.296875 31.488281 -48.882812 34.15625 -46.0625 C 36.820312 -43.25 38.15625 -39.253906 38.15625 -34.078125 L 38.15625 -15.3125 C 38.15625 -8.875 35.765625 -4.375 30.984375 -1.8125 L 39.65625 0.453125 L 39.8125 6.40625 L 38.375 6.40625 L 23.609375 0.828125 C 23.253906 0.878906 22.648438 0.90625 21.796875 0.90625 C 10.785156 0.90625 5.28125 -4.5 5.28125 -15.3125 L 5.28125 -34.078125 C 5.28125 -39.253906 6.609375 -43.25 9.265625 -46.0625 C 11.929688 -48.882812 16.082031 -50.296875 21.71875 -50.296875 Z M 21.71875 -44.640625 C 18.394531 -44.640625 15.890625 -43.804688 14.203125 -42.140625 C 12.523438 -40.484375 11.6875 -38.050781 11.6875 -34.84375 L 11.6875 -14.625 C 11.6875 -11.40625 12.539062 -8.953125 14.25 -7.265625 C 15.957031 -5.585938 18.472656 -4.75 21.796875 -4.75 C 28.429688 -4.75 31.75 -8.09375 31.75 -14.78125 L 31.75 -34.765625 C 31.75 -37.984375 30.90625 -40.429688 29.21875 -42.109375 C 27.53125 -43.796875 25.03125 -44.640625 21.71875 -44.640625 Z M 21.71875 -44.640625 "/></g></g></g><g fill="#000000" fill-opacity="1"><g transform="translate(39.64366, 313.964868)"><g><path d="M 37.78125 -15.609375 C 37.78125 -10.273438 36.421875 -6.1875 33.703125 -3.34375 C 30.992188 -0.507812 27 0.90625 21.71875 0.90625 C 16.488281 0.90625 12.503906 -0.472656 9.765625 -3.234375 C 7.023438 -6.003906 5.65625 -10.078125 5.65625 -15.453125 L 5.65625 -49.390625 L 12.0625 -49.390625 L 12.0625 -14.625 C 12.0625 -11.40625 12.90625 -8.953125 14.59375 -7.265625 C 16.28125 -5.585938 18.65625 -4.75 21.71875 -4.75 C 24.832031 -4.75 27.21875 -5.585938 28.875 -7.265625 C 30.539062 -8.953125 31.375 -11.40625 31.375 -14.625 L 31.375 -49.390625 L 37.78125 -49.390625 Z M 37.78125 -15.609375 "/></g></g></g><g fill="#000000" fill-opacity="1"><g transform="translate(79.988284, 313.964868)"><g><path d="M 31.671875 -49.390625 L 31.671875 -43.578125 L 12.0625 -43.578125 L 12.0625 -27.96875 L 30.15625 -27.96875 L 30.15625 -22.25 L 12.0625 -22.25 L 12.0625 -5.8125 L 31.671875 -5.8125 L 31.671875 0 L 5.65625 0 L 5.65625 -49.390625 Z M 31.671875 -49.390625 "/></g></g></g><g fill="#000000" fill-opacity="1"><g transform="translate(113.470522, 313.964868)"><g><path d="M 18.015625 -50.296875 C 20.734375 -50.296875 24.28125 -49.894531 28.65625 -49.09375 L 28.5 -43.4375 C 24.375 -44.238281 20.878906 -44.640625 18.015625 -44.640625 C 15.109375 -44.640625 13.007812 -44.0625 11.71875 -42.90625 C 10.4375 -41.75 9.796875 -39.988281 9.796875 -37.625 L 9.796875 -35.671875 C 9.796875 -34.410156 9.957031 -33.414062 10.28125 -32.6875 C 10.613281 -31.957031 11.207031 -31.328125 12.0625 -30.796875 C 12.914062 -30.273438 14.195312 -29.738281 15.90625 -29.1875 L 22.921875 -26.84375 C 26.285156 -25.6875 28.660156 -24.148438 30.046875 -22.234375 C 31.429688 -20.328125 32.125 -17.539062 32.125 -13.875 L 32.125 -12.4375 C 32.125 -7.96875 30.828125 -4.625 28.234375 -2.40625 C 25.648438 -0.195312 21.414062 0.90625 15.53125 0.90625 C 12.664062 0.90625 9 0.398438 4.53125 -0.609375 L 4.671875 -6.40625 C 8.847656 -5.40625 12.421875 -4.90625 15.390625 -4.90625 C 19.148438 -4.90625 21.8125 -5.46875 23.375 -6.59375 C 24.9375 -7.726562 25.71875 -9.503906 25.71875 -11.921875 L 25.71875 -14.40625 C 25.71875 -16.164062 25.328125 -17.507812 24.546875 -18.4375 C 23.765625 -19.363281 22.394531 -20.15625 20.4375 -20.8125 L 12.671875 -23.375 C 9.203125 -24.53125 6.785156 -26.023438 5.421875 -27.859375 C 4.066406 -29.691406 3.390625 -32.46875 3.390625 -36.1875 L 3.390625 -37.03125 C 3.390625 -41.394531 4.554688 -44.695312 6.890625 -46.9375 C 9.234375 -49.175781 12.941406 -50.296875 18.015625 -50.296875 Z M 18.015625 -50.296875 "/></g></g></g><g fill="#000000" fill-opacity="1"><g transform="translate(145.142899, 313.964868)"><g><path d="M 37.328125 -49.390625 L 37.328125 -43.578125 L 23 -43.578125 L 23 0 L 16.59375 0 L 16.59375 -43.578125 L 2.265625 -43.578125 L 2.265625 -49.390625 Z M 37.328125 -49.390625 "/></g></g></g><g fill="#000000" fill-opacity="1"><g transform="translate(181.64157, 313.964868)"><g/></g></g><g fill="#000000" fill-opacity="1"><g transform="translate(192.123503, 313.964868)"><g><path d="M 37.328125 -49.390625 L 37.328125 -43.578125 L 23 -43.578125 L 23 0 L 16.59375 0 L 16.59375 -43.578125 L 2.265625 -43.578125 L 2.265625 -49.390625 Z M 37.328125 -49.390625 "/></g></g></g><g fill="#000000" fill-opacity="1"><g transform="translate(228.622174, 313.964868)"><g><path d="M 31.671875 -49.390625 L 31.671875 -43.578125 L 12.0625 -43.578125 L 12.0625 -27.96875 L 30.15625 -27.96875 L 30.15625 -22.25 L 12.0625 -22.25 L 12.0625 -5.8125 L 31.671875 -5.8125 L 31.671875 0 L 5.65625 0 L 5.65625 -49.390625 Z M 31.671875 -49.390625 "/></g></g></g><g fill="#000000" fill-opacity="1"><g transform="translate(262.104411, 313.964868)"><g><path d="M 23.984375 -49.390625 L 39.140625 0 L 32.203125 0 L 28.953125 -11.46875 L 10.78125 -11.46875 L 7.546875 0 L 0.984375 0 L 16.0625 -49.390625 Z M 19.90625 -43.515625 L 12.359375 -17.1875 L 27.375 -17.1875 Z M 19.90625 -43.515625 "/></g></g></g><g fill="#000000" fill-opacity="1"><g transform="translate(299.130958, 313.964868)"><g><path d="M 21.34375 -50.296875 C 23.300781 -50.296875 25.421875 -50.109375 27.703125 -49.734375 C 29.992188 -49.359375 31.34375 -49.144531 31.75 -49.09375 L 31.59375 -43.4375 C 27.164062 -44.238281 23.75 -44.640625 21.34375 -44.640625 C 17.925781 -44.640625 15.460938 -43.9375 13.953125 -42.53125 C 12.441406 -41.125 11.6875 -38.785156 11.6875 -35.515625 L 11.6875 -13.953125 C 11.6875 -10.679688 12.425781 -8.351562 13.90625 -6.96875 C 15.394531 -5.59375 17.875 -4.90625 21.34375 -4.90625 C 23.75 -4.90625 27.164062 -5.304688 31.59375 -6.109375 L 31.75 -0.296875 C 31.34375 -0.242188 29.992188 -0.03125 27.703125 0.34375 C 25.421875 0.71875 23.300781 0.90625 21.34375 0.90625 C 15.5625 0.90625 11.4375 -0.320312 8.96875 -2.78125 C 6.507812 -5.25 5.28125 -9.097656 5.28125 -14.328125 L 5.28125 -35.0625 C 5.28125 -40.289062 6.507812 -44.132812 8.96875 -46.59375 C 11.4375 -49.0625 15.5625 -50.296875 21.34375 -50.296875 Z M 21.34375 -50.296875 "/></g></g></g><g fill="#000000" fill-opacity="1"><g transform="translate(331.934498, 313.964868)"><g><path d="M 38.078125 -49.390625 L 38.078125 0 L 31.671875 0 L 31.671875 -22.625 L 12.0625 -22.625 L 12.0625 0 L 5.65625 0 L 5.65625 -49.390625 L 12.0625 -49.390625 L 12.0625 -28.359375 L 31.671875 -28.359375 L 31.671875 -49.390625 Z M 38.078125 -49.390625 "/></g></g></g></svg>